<svg xmlns="http://www.w3.org/2000/svg" version="1.1" xmlns:xlink="http://www.w3.org/1999/xlink" xmlns:svgjs="http://svgjs.dev/svgjs" width="1440" height="560" preserveAspectRatio="none" viewBox="0 0 1440 560"><g mask="url(&quot;#SvgjsMask2114&quot;)" fill="none"><rect width="1440" height="560" x="0" y="0" fill="url(&quot;#SvgjsLinearGradient2115&quot;)"></rect><path d="M1440 0L1358.82 0L1440 206.23z" fill="rgba(255, 255, 255, .1)"></path><path d="M1358.82 0L1440 206.23L1440 390.86L631.06 0z" fill="rgba(255, 255, 255, .075)"></path><path d="M631.06 0L1440 390.86L1440 495.83000000000004L588.38 0z" fill="rgba(255, 255, 255, .05)"></path><path d="M588.38 0L1440 495.83000000000004L1440 533.98L467.83 0z" fill="rgba(255, 255, 255, .025)"></path><path d="M0 560L391.97 560L0 473.7z" fill="rgba(0, 0, 0, .1)"></path><path d="M0 473.7L391.97 560L810.05 560L0 441.86z" fill="rgba(0, 0, 0, .075)"></path><path d="M0 441.86L810.05 560L1081.74 560L0 205.43z" fill="rgba(0, 0, 0, .05)"></path><path d="M0 205.43L1081.74 560L1108.25 560L0 195.88z" fill="rgba(0, 0, 0, .025)"></path></g><defs><mask id="SvgjsMask2114"><rect width="1440" height="560" fill="#ffffff"></rect></mask><linearGradient x1="15.28%" y1="-39.29%" x2="84.72%" y2="139.29%" gradientUnits="userSpaceOnUse" id="SvgjsLinearGradient2115"><stop stop-color="rgba(255, 147, 164, 1)" offset="0.01"></stop><stop stop-color="rgba(211, 146, 156, 1)" offset="0.26"></stop></linearGradient></defs></svg>